PathFileType	4	(X/Y/Z)	E:\Qualisys_Data\Carbon_Farble_Plate\Data\Amateur_Runner\S14\T2\S14T2V23_c3d.trc
DataRate	CameraRate	NumFrames	NumMarkers	Units	OrigDataRate	OrigDataStartFrame	OrigNumFrames
200.000000	200.000000	4	39	mm	200.000000	165	330
Frame#	Time	LSHO			RSHO			LICST			RICST			LASIS			LHEEL			RASIS			LTROC			RTROC			SACR			LTH1			LSK4			LTH2			LTH3			RHM5			LSK2			LTH4			RTH1			LTOE			RTH2			RTH3			RTH4			LLEP			RLEP			LSK1			LSK3			RSK1			LHM5			RSK2			LFT1			RSK3			RSK4			LLME			RLME			RTOE			RHEEL			RFT1			RFT2			LFT2			
		X1	Y1	Z1	X2	Y2	Z2	X3	Y3	Z3	X4	Y4	Z4	X5	Y5	Z5	X6	Y6	Z6	X7	Y7	Z7	X8	Y8	Z8	X9	Y9	Z9	X10	Y10	Z10	X11	Y11	Z11	X12	Y12	Z12	X13	Y13	Z13	X14	Y14	Z14	X15	Y15	Z15	X16	Y16	Z16	X17	Y17	Z17	X18	Y18	Z18	X19	Y19	Z19	X20	Y20	Z20	X21	Y21	Z21	X22	Y22	Z22	X23	Y23	Z23	X24	Y24	Z24	X25	Y25	Z25	X26	Y26	Z26	X27	Y27	Z27	X28	Y28	Z28	X29	Y29	Z29	X30	Y30	Z30	X31	Y31	Z31	X32	Y32	Z32	X33	Y33	Z33	X34	Y34	Z34	X35	Y35	Z35	X36	Y36	Z36	X37	Y37	Z37	X38	Y38	Z38	X39	Y39	Z39	

166	0.825	-232.1676788330078	1457.750122070312	-545.96923828125	-290.0440673828125	1455.674438476562	-256.64599609375	-300.1724548339844	1003.208190917969	-537.8915405273438	-244.2114562988281	1003.297668457031	-268.2386474609375	-260.6340026855469	950.1215209960938	-525.4171142578125	-899.7758178710938	439.5030212402344	-392.0458984375	-217.396728515625	963.5249633789062	-295.2234497070312	-418.7756958007812	907.2410888671876	-533.28271484375	-334.739990234375	873.69921875	-214.4513702392578	-405.2948913574219	1001.707153320312	-386.8690795898438	-456.5094909667969	699.2026977539062	-571.2981567382812	-759.4515380859375	516.3268432617188	-494.6546325683594	-512.3595581054688	723.8829956054688	-519.186279296875	-489.7029113769531	604.3659057617188	-564.6611328125	149.4229278564453	157.7307586669922	-247.6448974609375	-675.0653076171875	560.2879028320312	-525.0430297851562	-550.6349487304688	632.9362182617188	-518.9517822265625	-150.0639953613281	695.5949096679688	-233.5542144775391	-945.9434204101562	195.5349731445312	-465.7875366210938	-221.5757141113281	663.5745849609375	-219.4418334960938	-112.9590148925781	608.2445068359375	-268.503173828125	-186.4943695068359	572.5130615234375	-246.4491729736328	-567.5746459960938	564.1971435546875	-547.10498046875	-131.3563537597656	523.3531494140625	-257.0475158691406	-643.8158569335938	487.1669921875	-546.4505615234375	-733.4511108398438	444.3215026855469	-521.3499755859375	-66.28199768066406	420.6019897460938	-253.6370544433594	-978.611083984375	276.0898132324219	-500.3167419433594	-143.3586273193359	383.2724304199219	-262.692138671875	-919.8968505859376	424.2560424804688	-363.9750671386719	-26.8261890411377	324.9255981445312	-267.0335693359375	-100.2820281982422	297.7132263183594	-274.392333984375	-900.3395385742188	406.294677734375	-467.5384521484375	12.72875022888184	147.3957672119141	-291.3133850097656	208.0039672851562	226.8151092529297	-291.7995910644531	-11.8230619430542	96.65933227539062	-354.3560180664062	21.22988700866699	85.98075103759766	-381.7878723144531	3.518407583236694	70.16214752197266	-330.6355285644531	-940.091552734375	445.7555847167969	-410.7139892578125
167	0.83	-211.5367889404297	1454.383056640625	-545.7323608398438	-268.7266540527344	1452.210815429688	-255.8656921386719	-278.8751220703125	1000.626098632812	-537.8582763671875	-222.1950378417969	1000.485107421875	-268.4371032714844	-239.0915069580078	947.4656982421876	-525.4332275390625	-877.3107299804688	441.597900390625	-391.27685546875	-195.2348480224609	960.9397583007812	-295.6138610839844	-396.9282836914062	903.6370849609376	-533.7698974609375	-312.0781860351562	869.7786865234375	-214.3211212158203	-386.540283203125	997.8419799804688	-387.1575012207031	-432.8274841308594	694.859130859375	-572.6312255859375	-734.6363525390625	515.6912231445312	-495.2210388183594	-488.9990844726562	718.8135986328125	-520.3353881835938	-465.0864562988281	599.5635986328125	-566.329345703125	168.7061004638672	153.0410614013672	-248.9855651855469	-649.8458251953125	557.6613159179688	-526.4102172851562	-526.205810546875	627.2683715820312	-520.6871337890625	-127.1665420532227	692.3860473632812	-233.3379821777344	-922.6094360351562	198.1517181396484	-466.873291015625	-198.8889007568359	661.8329467773438	-219.7420806884766	-90.26620483398438	605.389892578125	-268.5647888183594	-164.4632263183594	569.8328247070312	-247.5529937744141	-542.1998901367188	559.5811767578125	-549.8862915039062	-108.8805923461914	520.8111572265625	-256.8551940917969	-620.2127075195312	484.0596008300781	-548.48486328125	-709.953125	443.0180053710938	-521.9008178710938	-45.15594100952148	416.5023803710938	-254.2445526123047	-955.5424194335938	278.4334411621094	-501.0189208984375	-122.5947036743164	380.4940185546875	-262.3593444824219	-897.5634155273438	426.0166015625	-362.6249389648438	-6.547167778015137	321.0669860839844	-267.2618713378906	-79.9037857055664	294.6806640625	-274.1900634765625	-877.4849853515625	408.5299987792969	-466.9389953613281	31.92570304870605	143.1522216796875	-291.975830078125	226.9994506835938	222.2870788574219	-293.4948425292969	6.649528026580811	92.42788696289062	-354.8939208984375	39.24486541748047	81.3239974975586	-381.9571838378906	22.01922035217285	65.78209686279297	-330.8221435546875	-917.6195678710938	447.5770263671875	-409.3694458007812
168	0.835	-191.4663391113281	1450.951049804688	-545.5584106445312	-247.6787261962891	1448.34814453125	-255.5550537109375	-257.943115234375	997.1834106445312	-537.7442626953125	-200.56591796875	997.2684326171876	-268.4865417480469	-217.942626953125	944.163330078125	-525.6263427734375	-854.6851806640625	443.2051086425781	-389.7498474121094	-173.5780639648438	957.8550415039062	-296.0982666015625	-375.1378784179688	899.7236328125	-533.81494140625	-289.4586791992188	866.0721435546875	-213.9287109375	-364.2470397949219	993.3490600585938	-385.930908203125	-409.248779296875	690.1333618164062	-573.718994140625	-709.708984375	514.60009765625	-495.9922790527344	-465.2416687011719	713.126953125	-521.6531372070312	-440.5271911621094	594.6106567382812	-568.1820068359375	187.0995330810547	147.4713439941406	-250.3607025146484	-624.1316528320312	554.9518432617188	-528.1893920898438	-502.0212707519531	621.6356201171875	-522.4697875976562	-103.8591384887695	689.74169921875	-233.6444854736328	-899.0228271484375	200.3573913574219	-468.4696655273438	-176.2324981689453	659.1519775390625	-220.6742553710938	-67.32597351074219	602.3275756835938	-268.939208984375	-141.6719512939453	567.66796875	-247.7058563232422	-517.2386474609375	554.389404296875	-551.9769897460938	-86.74813842773438	517.7051391601562	-257.3212280273438	-596.4822387695312	480.7847595214844	-550.3853149414062	-686.6728515625	441.0873718261719	-522.679931640625	-23.50524139404297	412.9206237792969	-254.1981964111328	-932.2772216796876	281.2481689453125	-501.5679931640625	-101.3242797851562	377.7744750976562	-262.1138305664062	-874.7552490234375	427.7845153808594	-361.5516662597656	14.04088497161865	316.5627136230469	-267.5176391601562	-59.9745979309082	291.1642456054688	-274.3153686523438	-854.4658813476562	410.3070068359375	-466.072265625	50.00237655639648	138.61767578125	-292.2233581542969	245.6653747558594	216.2721862792969	-295.4819641113281	23.74032974243164	87.73313903808594	-354.2272033691406	56.55207443237305	76.52668762207031	-382.3783569335938	39.19267272949219	61.20851135253906	-330.6496887207031	-894.5363159179688	449.8397827148438	-408.1992492675781
169	0.84	-171.0146789550781	1447.200317382812	-545.30029296875	-226.2043151855469	1444.248657226562	-254.839599609375	-236.6865692138672	993.6732788085938	-537.6749267578125	-178.6819458007812	994.030029296875	-268.4123840332031	-196.3488464355469	940.83251953125	-525.6089477539062	-831.2272338867188	444.4494018554688	-388.5736083984375	-151.8846893310547	954.544921875	-296.4018249511719	-353.1270751953125	895.4137573242188	-534.5543212890625	-267.3558044433594	862.3657836914062	-213.4634552001953	-342.8959655761719	988.81787109375	-385.8600158691406	-384.9426574707031	685.1090087890625	-575.03125	-684.1102905273438	513.0651245117188	-496.6472473144531	-441.6590881347656	707.49853515625	-522.6880493164062	-415.1047973632812	589.1326293945312	-570.3721923828125	204.5648803710938	141.5545501708984	-252.1136779785156	-598.2238159179688	551.6309204101562	-529.9834594726562	-477.2801513671875	615.6087036132812	-524.6730346679688	-80.64749908447266	687.478515625	-233.7567138671875	-875.1735229492188	202.3137512207031	-469.6684875488281	-152.9850616455078	657.2907104492188	-220.9850006103516	-44.24362564086914	600.0242309570312	-269.0490417480469	-118.3832092285156	565.1218872070312	-247.9900512695312	-491.7442321777344	549.0712280273438	-554.0614013671875	-64.15860748291016	514.6929931640625	-256.9512023925781	-572.1322021484375	476.8255004882812	-552.3735961914062	-663.0028686523438	439.3165893554688	-523.4884643554688	-1.928128480911255	408.7155456542969	-254.6138458251953	-908.2164306640624	283.5900573730469	-502.1347351074219	-80.2935562133789	374.6285095214844	-262.1419372558594	-851.6218872070312	428.9696350097656	-360.6085205078125	34.14269638061523	311.9780578613281	-268.1427917480469	-40.36267471313477	287.5934753417969	-274.1756286621094	-830.6869506835938	411.9540405273438	-465.6834411621094	67.13176727294922	133.6298370361328	-292.6942749023438	262.9264831542969	209.3613891601562	-297.8791198730469	39.58549118041992	82.5384750366211	-354.5751647949219	72.20587158203125	71.07893371582031	-382.7777709960938	55.33821105957031	55.49715423583984	-331.0745239257812	-871.6250610351562	451.1249389648438	-407.4713134765625
